<svg width="475.99985" height="959.99988" xmlns="http://www.w3.org/2000/svg" xmlns:svg="http://www.w3.org/2000/svg" xmlns:xlink="http://www.w3.org/1999/xlink">
    <title>Red Car - Top View</title>
    <defs>
        <linearGradient id="linearGradient3759">
            <stop id="stop3761" offset="0" stop-color="#1a1a1a"/>
            <stop id="stop3763" offset="1" stop-opacity="0" stop-color="#f30000"/>
        </linearGradient>
        <linearGradient x1="1.114954" y1="0.499998" x2="0.50023" y2="0.325213" id="linearGradient4149" xlink:href="#linearGradient3759"/>
        <linearGradient x1="1.543694" y1="0.494625" x2="-0.254715" y2="0.402934" id="linearGradient4153" xlink:href="#linearGradient3759"/>
        <linearGradient x1="1.463053" y1="0.50498" x2="-0.237504" y2="0.37682" id="linearGradient4155" xlink:href="#linearGradient3759"/>
        <linearGradient x1="1.114954" y1="0.499997" x2="0.50023" y2="0.674782" id="linearGradient4185" xlink:href="#linearGradient3759"/>
        <linearGradient x1="1.675379" y1="0.704643" x2="1.363287" y2="0.703166" id="linearGradient4187" xlink:href="#linearGradient3759"/>
        <linearGradient x1="1.463053" y1="0.495016" x2="-0.237504" y2="0.623177" id="linearGradient4189" xlink:href="#linearGradient3759"/>
        <linearGradient x1="1.15198" y1="0.444778" x2="0.99102" y2="0.564393" id="linearGradient4191" xlink:href="#linearGradient3759"/>
        <linearGradient x1="0.954577" y1="0.280449" x2="0.419899" y2="1.148213" id="linearGradient4193" xlink:href="#linearGradient3759"/>
        <linearGradient x1="1.756025" y1="0.714997" x2="-0.436338" y2="0.686303" id="linearGradient4195" xlink:href="#linearGradient3759"/>
        <linearGradient x1="1.543694" y1="0.505368" x2="-0.254715" y2="0.597059" id="linearGradient4197" xlink:href="#linearGradient3759"/>
        <linearGradient x1="1.000091" y1="0.381025" x2="0.00008" y2="0.683243" id="linearGradient4199" xlink:href="#linearGradient3759"/>
        <linearGradient x1="1.000106" y1="0.367189" x2="0.000096" y2="0.499996" id="linearGradient4201" xlink:href="#linearGradient3759"/>
        <linearGradient x1="1.675379" y1="0.295353" x2="1.363287" y2="0.29683" id="linearGradient4203" xlink:href="#linearGradient3759"/>
        <linearGradient x1="1.15198" y1="0.555219" x2="0.99102" y2="0.435603" id="linearGradient4205" xlink:href="#linearGradient3759"/>
        <linearGradient x1="0.954577" y1="0.719548" x2="0.419899" y2="-0.148216" id="linearGradient4207" xlink:href="#linearGradient3759"/>
        <linearGradient x1="1.756025" y1="0.284999" x2="-0.436338" y2="0.313693" id="linearGradient4209" xlink:href="#linearGradient3759"/>
        <linearGradient x1="1.000091" y1="0.618965" x2="0.00008" y2="0.316745" id="linearGradient4211" xlink:href="#linearGradient3759"/>
        <linearGradient x1="1.000106" y1="0.632802" x2="0.000096" y2="0.499994" id="linearGradient4213" xlink:href="#linearGradient3759"/>
    </defs>
    <g>
        <title>Layer 1</title>
        <g id="layer1" display="inline" transform="rotate(-90 236.66656494140628,480.0001525878906) ">
            <g id="g3890">
                <path d="m314.254426,249.00011c-1.50862,0.009 -4.72109,0.30491 -6.46868,0.9375l-3.49996,1.5l8.65615,35.9375l-124.81115,0.28125c-2.43634,0.005 -4.88764,-0.014 -7.34367,-0.0312c-4.91201,-0.0343 -9.86492,-0.10455 -14.84359,-0.21875c-7.29262,-0.16728 -14.66884,-0.41288 -22.06226,-0.71875c-0.39591,-0.0164 -0.79137,-0.0457 -1.18749,-0.0625c-14.93239,-0.63018 -30.00722,-1.49172 -45.03076,-2.4375c-20.32623,-1.28274 -40.52004,-2.70737 -60.12436,-3.875c-14.52803,-0.8653 -28.73209,-1.57957 -42.37454,-2c-9.36918,-0.28873 -18.46383,-0.45655 -27.2497,-0.40625c-4.3158,0.0247 -8.56784,0.0933 -12.71862,0.21875c-4.15077,0.12546 -8.38013,0.3553 -12.65611,0.65625c-2.138,0.15047 -4.27775,0.31024 -6.43743,0.5c-6.46891,0.5684 -13.04498,1.32139 -19.59354,2.1875c-0.0101,0.001 -0.0211,-0.001 -0.0312,0c-4.37252,0.57858 -8.71848,1.22552 -13.06236,1.90625c-4.34388,0.68073 -8.6734,1.39782 -12.93736,2.15625c-4.25372,0.75662 -8.47041,1.56535 -12.59361,2.375c-0.01,0.002 -0.0212,-0.002 -0.0312,0c-2.06637,0.40586 -4.06974,0.80417 -6.09369,1.21875c-6.0614,1.24162 -11.93372,2.51605 -17.49981,3.78125c-0.0101,0.002 -0.0211,-0.002 -0.0312,0c-3.71646,0.8449 -7.28724,1.67516 -10.71863,2.5c-6.86382,1.6484 -13.11532,3.23459 -18.53105,4.65625c-8.12359,2.13248 -14.38243,3.9272 -18.09356,5c-2.47363,0.71578 -3.812456,1.125 -3.812456,1.125l-13.687352,3.75c-0.9024,0.24873 -1.778116,0.6929 -2.624972,1.3125c-0.287714,0.2105 -0.562337,0.43593 -0.843741,0.6875c-1.099587,0.9796 -2.151003,2.27067 -3.156216,3.84375c-0.0046,0.007 0.0046,0.0243 0,0.0312c-0.500364,0.78473 -1.022455,1.64046 -1.499983,2.5625c-0.0042,0.008 0.0042,0.0232 0,0.0312c-0.477572,0.9237 -0.951142,1.91418 -1.406235,2.96875c-0.0037,0.009 0.0037,0.0222 0,0.0312c-3.667035,8.50949 -6.620008,21.13133 -8.937404,36.21875c-0.0015,0.01 0.0015,0.0212 0,0.0312c-0.03595,0.23416 -0.0581,0.48342 -0.09375,0.71875c-0.504615,3.33147 -0.992038,6.79819 -1.437484,10.34375c-0.03048,0.24265 -0.06355,0.47519 -0.09375,0.71875c-0.501568,4.04315 -0.946721,8.20247 -1.374985,12.46875c-0.001,0.01 0.000999,0.0211 0,0.0312c-0.213544,2.1284 -0.429117,4.29479 -0.624994,6.46875c-0.000921,0.01 0.000921,0.0209 0,0.0312c-0.195809,2.17434 -0.383971,4.34922 -0.562494,6.5625c-0.000826,0.01 0.000825,0.0209 0,0.0312c-0.357748,4.43763 -0.678168,8.9458 -0.968739,13.5c-0.000656,0.0101 0.000655,0.0209 0,0.0312c-0.872596,13.68409 -1.459581,27.78871 -1.781231,41.5625c-0.000245,0.0104 0.000244,0.0207 0,0.0312c-0.214428,9.1894 -0.312597,18.21334 -0.312597,26.90655c0,0.96763 0.02755,1.96288 0.03125,2.9375c-0.0037,0.97462 -0.03125,1.96987 -0.03125,2.9375c0,8.69321 0.09816,17.71715 0.312497,26.90625c0.000244,0.0105 -0.000245,0.0208 0,0.0312c0.32165,13.77379 0.908635,27.87841 1.781231,41.5625c0.000655,0.0103 -0.000656,0.0211 0,0.0312c0.290571,4.5542 0.610991,9.06237 0.968739,13.5c0.000825,0.0103 -0.000826,0.0211 0,0.0312c0.178523,2.21328 0.366685,4.38816 0.562494,6.5625c0.000921,0.0103 -0.000921,0.0211 0,0.0312c0.195877,2.17396 0.41145,4.34035 0.624994,6.46875c0.000999,0.0102 -0.001,0.0211 0,0.0312c0.428264,4.26628 0.873417,8.4256 1.374985,12.46875c0.0302,0.24356 0.06327,0.4761 0.09375,0.71875c0.445446,3.54556 0.932869,7.01228 1.437484,10.34375c0.03565,0.23533 0.0578,0.48459 0.09375,0.71875c0.0015,0.01 -0.0015,0.0215 0,0.0312c2.317396,15.08742 5.270369,27.70926 8.937404,36.21875c0.0037,0.009 -0.0037,0.0226 0,0.0312c0.455093,1.05457 0.928663,2.04505 1.406235,2.96875c0.0042,0.008 -0.0042,0.0231 0,0.0312c0.477528,0.92204 0.999619,1.77777 1.499983,2.5625c0.0046,0.007 -0.0046,0.0242 0,0.0312c1.005213,1.57308 2.056629,2.86415 3.156216,3.84375c0.281404,0.25157 0.556027,0.477 0.843741,0.6875c0.846856,0.6196 1.722572,1.06377 2.624972,1.3125l13.687352,3.75c0,0 1.338826,0.40922 3.812456,1.125c3.71113,1.0728 9.96997,2.86752 18.09356,5c5.41573,1.42166 11.66723,3.00785 18.53105,4.65625c3.43139,0.82484 7.00217,1.6551 10.71863,2.5c0.0102,0.002 0.0211,-0.002 0.0312,0c5.56609,1.2652 11.43841,2.53963 17.49981,3.78125c2.02395,0.41458 4.02732,0.81289 6.09369,1.21875c0.0101,0.002 0.0212,-0.002 0.0312,0c4.1232,0.80965 8.33989,1.61838 12.59361,2.375c4.26396,0.75843 8.59348,1.47552 12.93736,2.15625c4.34388,0.68073 8.68984,1.32767 13.06236,1.90625c0.0102,0.001 0.0211,-0.001 0.0312,0c6.54856,0.86611 13.12463,1.6191 19.59354,2.1875c2.15968,0.18976 4.29943,0.34953 6.43743,0.5c4.27598,0.30095 8.50534,0.53079 12.65611,0.65625c4.15078,0.12546 8.40282,0.19403 12.71862,0.21875c8.78587,0.0503 17.88052,-0.11752 27.2497,-0.40625c13.64245,-0.42043 27.84651,-1.1347 42.37454,-2c19.60432,-1.16763 39.79813,-2.59226 60.12436,-3.875c15.02354,-0.94578 30.09837,-1.80732 45.03076,-2.4375c0.39612,-0.0168 0.79158,-0.0461 1.18749,-0.0625c7.39342,-0.30587 14.76964,-0.55147 22.06226,-0.71875c4.97867,-0.1142 9.93158,-0.18447 14.84359,-0.21875c2.45603,-0.0172 4.90733,-0.0365 7.34367,-0.0312l124.81115,0.28125l-8.65615,35.9375l3.49996,1.5c1.74759,0.63259 4.96006,0.92851 6.46868,0.9375c0.8486,0.005 1.75507,-0.0741 2.68747,-0.25c0.31069,-0.0585 0.62352,-0.14105 0.93749,-0.21875c0.30459,-0.0756 0.63258,-0.15668 0.93749,-0.25c0.62844,-0.19306 1.26352,-0.42156 1.87498,-0.6875c1.82153,-0.79351 3.53423,-1.93143 4.7812,-3.3125c0.01,-0.0107 0.0217,-0.0206 0.0312,-0.0312c0.6248,-0.6979 1.11229,-1.45125 1.46873,-2.28125l12.15612,-31.3125l109.93631,0.25c0.7469,0.3739 1.47606,0.74511 2.21873,1.09375c2.97917,1.39953 5.91095,2.59705 8.84365,3.625c1.46228,0.51259 2.91777,0.97549 4.37496,1.40625c5.1,1.50747 10.18794,2.55151 15.34358,3.25c2.9462,0.39932 5.92588,0.69388 8.93741,0.90625c1.5057,0.1061 3.03396,0.18011 4.56245,0.25c3.05704,0.13994 6.13857,0.21283 9.3124,0.25c6.34746,0.0741 12.97935,0 19.99978,0c10.41006,0 20.32222,-0.53122 29.78093,-1.5625c3.78349,-0.41251 7.49107,-0.89749 11.12488,-1.46875c7.26763,-1.14252 14.22833,-2.6189 20.90602,-4.375c1.66942,-0.43903 3.3357,-0.89874 4.9687,-1.375c4.89902,-1.42876 9.61279,-3.02542 14.18735,-4.78125c1.52485,-0.58527 3.04203,-1.16054 4.5312,-1.78125c2.97832,-1.24144 5.88199,-2.55695 8.71865,-3.9375c1.41834,-0.69027 2.83552,-1.40061 4.21871,-2.125c2.76638,-1.44876 5.46676,-2.98 8.09366,-4.5625c1.31346,-0.79125 2.5961,-1.61348 3.87496,-2.4375c6.39429,-4.1201 12.36302,-8.62549 17.90606,-13.53125c4.42862,-3.91947 8.60154,-8.07981 12.49986,-12.46875c0.005,-0.006 -0.005,-0.0254 0,-0.0312c0.97044,-1.09291 1.93696,-2.19158 2.87497,-3.3125c0.005,-0.006 -0.005,-0.0251 0,-0.0312c0.93773,-1.12093 1.87573,-2.25777 2.78122,-3.40625c0.005,-0.006 -0.005,-0.0249 0,-0.0312c2.72561,-3.45817 5.31324,-7.01887 7.74992,-10.71875c0.005,-0.007 -0.005,-0.024 0,-0.0312c0.80882,-1.22856 1.62889,-2.46441 2.40622,-3.71875c0.005,-0.008 -0.005,-0.0238 0,-0.0312c2.3405,-3.77809 4.56678,-7.65249 6.62493,-11.65625c0.004,-0.008 -0.004,-0.0231 0,-0.0312c0.68299,-1.32918 1.34774,-2.67809 1.99998,-4.03125c0.004,-0.008 -0.004,-0.0229 0,-0.0312c0.65204,-1.35328 1.316,-2.71692 1.93748,-4.09375c0.004,-0.009 -0.004,-0.0227 0,-0.0312c1.2464,-2.76248 2.43801,-5.5517 3.56246,-8.40625c0.004,-0.009 -0.004,-0.0224 0,-0.0312c0.56023,-1.42286 1.09477,-2.86742 1.62498,-4.3125c0.003,-0.009 -0.003,-0.0222 0,-0.0312c0.53002,-1.44524 1.06231,-2.90799 1.56248,-4.375c0.49999,-1.46713 0.99842,-2.94904 1.46874,-4.4375c0.003,-0.009 -0.003,-0.022 0,-0.0312c0.47013,-1.48858 0.93435,-2.99052 1.37498,-4.5c0.003,-0.01 -0.003,-0.0217 0,-0.0312c0.44045,-1.50961 0.87009,-3.03244 1.28124,-4.5625c0.003,-0.01 -0.003,-0.0217 0,-0.0312c1.23813,-4.61013 2.36836,-9.306 3.34369,-14.09375l0,-0.0312c0.3236,-1.58939 0.6112,-3.2044 0.9063,-4.8125l0,-0.0312c2.0747,-11.31836 3.4621,-23.06204 4.1562,-35.21875c0.0005,-0.0103 -0.0006,-0.0211 0,-0.0312c0.098,-1.72792 0.1787,-3.47566 0.25,-5.21875c0.0004,-0.0103 -0.0004,-0.0211 0,-0.0312c0.1426,-3.49694 0.2467,-7.00718 0.2812,-10.5625c0,-0.0103 -0.0001,-0.0211 0,-0.0312c0.017,-1.78297 0.01,-3.57803 0,-5.375c0,-0.6358 -0.022,-1.2714 -0.031,-1.90625c0.01,-0.63485 0.031,-1.27045 0.031,-1.90625c0.01,-1.79697 0.017,-3.59203 0,-5.375c-0.0001,-0.0102 0,-0.0209 0,-0.0312c-0.034,-3.55532 -0.1386,-7.06556 -0.2812,-10.5625c-0.0004,-0.0102 0.0004,-0.0209 0,-0.0312c-0.071,-1.74309 -0.152,-3.49083 -0.25,-5.21875c-0.0006,-0.0102 0.0005,-0.0209 0,-0.0312c-0.6941,-12.15671 -2.0815,-23.90039 -4.1562,-35.21875l0,-0.0312c-0.2951,-1.6081 -0.5827,-3.22311 -0.9063,-4.8125l0,-0.0312c-0.97537,-4.78775 -2.10556,-9.48362 -3.34369,-14.09375c-0.003,-0.01 0.003,-0.0213 0,-0.0312c-0.41115,-1.53006 -0.84079,-3.05289 -1.28124,-4.5625c-0.003,-0.01 0.003,-0.0213 0,-0.0312c-0.44063,-1.50948 -0.90485,-3.01142 -1.37498,-4.5c-0.003,-0.009 0.003,-0.0223 0,-0.0312c-0.47032,-1.48846 -0.96875,-2.97037 -1.46874,-4.4375c-0.50017,-1.46701 -1.03246,-2.92976 -1.56248,-4.375c-0.003,-0.009 0.003,-0.0223 0,-0.0312c-0.53021,-1.44508 -1.06475,-2.88964 -1.62498,-4.3125c-0.004,-0.009 0.004,-0.0223 0,-0.0312c-1.12445,-2.85455 -2.31606,-5.64377 -3.56246,-8.40625c-0.004,-0.008 0.004,-0.0223 0,-0.0312c-0.62148,-1.37683 -1.28544,-2.74047 -1.93748,-4.09375c-0.004,-0.008 0.004,-0.0233 0,-0.0312c-0.65224,-1.35316 -1.31699,-2.70207 -1.99998,-4.03125c-0.004,-0.008 0.004,-0.0233 0,-0.0312c-2.05815,-4.00376 -4.28443,-7.87816 -6.62493,-11.65625c-0.005,-0.007 0.005,-0.0233 0,-0.0312c-0.77733,-1.25434 -1.5974,-2.49019 -2.40622,-3.71875c-0.005,-0.007 0.005,-0.0242 0,-0.0312c-2.43668,-3.69988 -5.02431,-7.26058 -7.74992,-10.71875c-0.005,-0.006 0.005,-0.0253 0,-0.0312c-0.90549,-1.14848 -1.84349,-2.28532 -2.78122,-3.40625c-0.005,-0.006 0.005,-0.0253 0,-0.0312c-0.93801,-1.12092 -1.90453,-2.21959 -2.87497,-3.3125c-0.005,-0.006 0.005,-0.0253 0,-0.0312c-3.89832,-4.38894 -8.07124,-8.54928 -12.49986,-12.46875c-5.54304,-4.90576 -11.51177,-9.41115 -17.90606,-13.53125c-1.27886,-0.82402 -2.5615,-1.64625 -3.87496,-2.4375c-2.6269,-1.5825 -5.32728,-3.11374 -8.09366,-4.5625c-1.38319,-0.72439 -2.80037,-1.43473 -4.21871,-2.125c-2.83666,-1.38055 -5.74033,-2.69606 -8.71865,-3.9375c-1.48917,-0.62071 -3.00635,-1.19598 -4.5312,-1.78125c-4.57456,-1.75583 -9.28833,-3.35249 -14.18735,-4.78125c-1.633,-0.47626 -3.29928,-0.93597 -4.9687,-1.375c-6.67769,-1.7561 -13.63839,-3.23248 -20.90602,-4.375c-3.63381,-0.57126 -7.34139,-1.05624 -11.12488,-1.46875c-9.45856,-1.03258 -19.37072,-1.5638 -29.78078,-1.5638c-7.02043,0 -13.65232,-0.0741 -19.99978,0c-3.17383,0.0372 -6.25536,0.11006 -9.3124,0.25c-1.52849,0.0699 -3.05675,0.1439 -4.56245,0.25c-3.01153,0.21237 -5.99121,0.50693 -8.93741,0.90625c-5.15564,0.69849 -10.24358,1.74253 -15.34358,3.25c-1.45719,0.43076 -2.91268,0.89366 -4.37496,1.40625c-2.9327,1.02795 -5.86448,2.22547 -8.84365,3.625c-0.74267,0.34864 -1.47183,0.71985 -2.21873,1.09375l-109.93631,0.25l-12.15612,-31.3125c-0.35644,-0.83 -0.84393,-1.58335 -1.46873,-2.28125c-0.01,-0.0105 -0.0213,-0.0206 -0.0312,-0.0312c-1.24697,-1.38107 -2.95967,-2.51899 -4.7812,-3.3125c-0.61146,-0.26594 -1.24654,-0.49444 -1.87498,-0.6875c-0.30491,-0.0933 -0.6329,-0.1744 -0.93749,-0.25c-0.31402,-0.0777 -0.62685,-0.16025 -0.93754,-0.21875c-0.9324,-0.1759 -1.83887,-0.255 -2.68747,-0.25l0,-0.0001z" id="path3855" stroke-miterlimit="4" stroke-width="14" stroke="#191919" fill-opacity="0.996078" fill="#000000"/>
                <path d="m314.254426,249.00011c-1.50863,0.009 -4.72109,0.30611 -6.46868,0.9375l-3.49996,1.5l8.65615,35.84375l-124.81115,0.28125c-77.96294,0.1654 -166.52257,-11.50367 -232.93499,-9.5c-66.41241,2.00366 -152.123355,28 -152.123355,28l-13.687353,3.78125c-19.251207,5.29627 -25.718472,97.36705 -25.718472,166.78125c0,1.11303 0.02665,2.25313 0.03125,3.375c-0.0046,1.12187 -0.03125,2.26197 -0.03125,3.375c0,69.4142 6.467265,161.48498 25.718472,166.78125l13.687353,3.78125c0,0 85.710945,25.99634 152.123355,28c66.41242,2.00367 154.97205,-9.6654 232.93499,-9.5l124.81115,0.28125l-8.65615,35.84375l3.49996,1.5c1.74759,0.63139 4.96005,0.92854 6.46868,0.9375c0.84859,0.005 1.75508,-0.0744 2.68747,-0.25c0.3107,-0.0584 0.62352,-0.14119 0.93749,-0.21875c0.30459,-0.0754 0.63259,-0.15686 0.93749,-0.25c0.62844,-0.19269 1.2635,-0.42206 1.87498,-0.6875c1.82153,-0.79201 3.53423,-1.90276 4.7812,-3.28125c0.01,-0.0107 0.0217,-0.0208 0.0312,-0.0312c0.6248,-0.69658 1.11228,-1.45281 1.46873,-2.28125l12.15612,-31.25l109.93631,0.25c23.90036,11.94238 45.51124,10.71875 73.59296,10.71875c133.24883,0 187.62627,-86.58633 186.99807,-201.375c0,-0.7802 -0.019,-1.56564 -0.031,-2.34375c0.012,-0.77811 0.031,-1.56355 0.031,-2.34375c0.6282,-114.78867 -53.74924,-201.375 -186.99807,-201.375c-28.08172,0 -49.6926,-1.22363 -73.59296,10.71875l-109.93631,0.25l-12.15612,-31.25c-0.35645,-0.82844 -0.84393,-1.58467 -1.46873,-2.28125c-0.01,-0.0104 -0.0213,-0.0206 -0.0312,-0.0312c-1.24697,-1.37849 -2.95967,-2.48924 -4.7812,-3.28125c-0.61148,-0.26544 -1.24654,-0.49481 -1.87498,-0.6875c-0.3049,-0.0931 -0.6329,-0.1746 -0.93749,-0.25c-0.31397,-0.0776 -0.62679,-0.16035 -0.93749,-0.21875c-0.93239,-0.1756 -1.83888,-0.255 -2.68747,-0.25l0,-0.0001z" id="path2853" fill-opacity="0.996078" fill="#ffffff"/>
                <path d="m104.069586,610.54334c-33.36407,0 -65.30693,1.8 -94.81148,5.0625c25.66022,48.71366 97.98502,30.26531 205.56028,31.53125c49.68636,0.58471 89.54313,1.87929 121.52994,2.375c-47.1597,-23.33417 -133.52669,-38.96875 -232.27874,-38.96875z" id="path3643" fill-opacity="0.996078" fill="#262626" opacity="0.9"/>
                <path d="m104.069586,610.54334c-3.20645,0 -6.3831,0.0295 -9.5624,0.0625c0.81825,16.17101 6.42806,30.25652 14.59359,38.84375c4.67141,-0.0756 9.49509,-0.19655 14.43735,-0.34375c-8.56569,-8.1923 -14.59264,-22.22803 -15.71858,-38.5625c-1.25125,-0.005 -2.49466,0 -3.74996,0z" id="path3658" fill-opacity="0.996078" fill="#000000" opacity="0.5"/>
                <path d="m692.750736,582.80689l-5.0937,0.59375c-21.54475,2.51272 -37.68825,25.97858 -39.28083,54.53125l-0.37499,7.125l5.24994,-4.84375c15.88918,-14.68042 28.30315,-32.50737 37.40585,-52.75l2.09373,-4.65625z" id="path3707" stroke-miterlimit="4" stroke-width="5" stroke="#191919" fill-rule="nonzero" fill="#212121"/>
                <path d="m487.204076,593.80501c0,0 79.67723,-22.59643 105.37631,-31.98181c26.83936,-9.80183 98.85885,-39.14563 98.85885,-39.14563c0,0 -8.74094,42.46969 -30.48286,57.91806c-77.22325,54.86973 -232.68583,53.85363 -232.68583,53.85363" id="path3715" stroke-miterlimit="4" stroke-linejoin="round" stroke-linecap="round" stroke-width="6" stroke="#292929" fill="none" opacity="0.5"/>
                <path d="m573.699006,573.1448l-4.43745,2.34375c0.98912,1.15678 1.79551,2.42864 2.37497,3.84375c4.79791,11.71705 -10.73585,29.23596 -26.87471,35.78125c-0.51675,0.20958 -1.81289,0.84066 -3.40621,1.65625l13.62485,-3.875c17.30577,-8.45764 27.47047,-23.08195 22.99975,-34c-0.91615,-2.23734 -2.3752,-4.16608 -4.2812,-5.75z" id="path3757" fill="url(#linearGradient4149)"/>
                <path d="m582.283176,568.68371l-4.43746,2.34375c0.98913,1.15678 1.79551,2.42864 2.37498,3.84375c4.79791,11.71705 -10.73586,29.23596 -26.87471,35.78125c-0.51676,0.20958 -1.81289,0.84066 -3.40622,1.65625l13.62486,-3.875c17.30577,-8.45764 27.47047,-23.08195 22.99975,-34c-0.91615,-2.23734 -2.37521,-4.16608 -4.2812,-5.75z" id="path3787" fill="url(#linearGradient4203)"/>
                <path d="m588.470286,567.2695l-4.43745,2.34375c0.98913,1.15678 1.79551,2.42864 2.37497,3.84375c4.79791,11.71705 -10.73585,29.23596 -26.87471,35.78125c-0.51675,0.20958 -1.81289,0.84066 -3.40621,1.65625l13.62485,-3.875c17.30577,-8.45764 27.47047,-23.08195 22.99975,-34c-0.91615,-2.23734 -2.3752,-4.16608 -4.2812,-5.75z" id="path3752" fill="url(#linearGradient4155)"/>
                <path d="m605.376676,562.99621l-6.18744,1.84375c0.96015,1.71281 1.65449,3.53229 2.03123,5.46875c3.11938,16.03389 -20.96196,34.28356 -43.03078,38.5c-3.39497,0.64864 -28.88402,8.57601 -32.15792,8.80445l0,4.125l41.43906,-12.1482c26.2854,-5.49629 44.94881,-22.44802 41.87455,-38.25c-0.59564,-3.06164 -1.95605,-5.85954 -3.9687,-8.34375z" id="path3735" fill="url(#linearGradient4205)"/>
                <path d="m605.376676,562.99621l-6.18744,1.84375c0.96015,1.71281 1.65449,3.53229 2.03123,5.46875c3.11938,16.03389 -20.96196,34.28356 -43.03078,38.5c-3.39497,0.64864 -28.88402,8.57601 -32.15792,8.80445l0,4.125l41.43906,-12.1482c26.2854,-5.49629 44.94881,-22.44802 41.87455,-38.25c-0.59564,-3.06164 -1.95605,-5.85954 -3.9687,-8.34375z" id="path3783" fill="url(#linearGradient4207)"/>
                <path d="m560.852416,577.76424l-3.96408,2.09372c0.88361,1.03338 1.60397,2.16956 2.12162,3.43371c4.28608,10.4671 -9.59058,26.11713 -24.00777,31.96418c-0.46163,0.18723 -1.6195,0.75098 -3.04285,1.47957l12.17138,-3.46162c15.45963,-7.5554 24.53998,-20.61962 20.54619,-30.37296c-0.81842,-1.99866 -2.12182,-3.72165 -3.82449,-5.1366z" id="path3799" fill="url(#linearGradient4209)"/>
                <path d="m547.045096,581.33753l-3.96407,2.09372c0.88361,1.03338 1.60396,2.16956 2.12162,3.43371c4.28607,10.4671 -9.59058,26.11713 -24.00779,31.96418c-0.46162,0.18723 -1.61949,0.75098 -3.04283,1.47957l12.17138,-3.46163c15.45963,-7.55539 24.53998,-20.61961 20.54618,-30.37295c-0.81842,-1.99866 -2.12182,-3.72165 -3.82449,-5.1366z" id="path3803" fill="url(#linearGradient4153)"/>
                <path d="m-63.004734,601.03041c8.29302,-2.02335 15.48553,-1.4788 19.79746,5.78717l-2.49335,17.89675c-6.87512,6.17325 -13.75024,4.95089 -20.62536,0.15543l3.32125,-23.83935z" id="rect3861" fill="url(#linearGradient4211)"/>
                <path d="m-42.728534,604.29368c8.15021,-1.21022 15.16667,-0.5728 18.84282,5.50812l-2.37311,17.03377c-6.4839,2.97479 -12.98291,5.20965 -19.63082,0.14793l3.16111,-22.68982z" id="path3864" fill="url(#linearGradient4213)"/>
                <path d="m104.069586,608.05689c-33.45399,0 -65.4921,1.78938 -95.09273,5.0625l-3.65621,0.40625l1.71873,3.25c6.67107,12.66443 16.56158,21.1134 29.06219,26.4375c12.5006,5.3241 27.5721,7.6126 45.09326,8.4375c35.04231,1.6498 79.95415,-2.63121 133.59231,-2c49.65868,0.58438 89.50788,1.87874 121.52994,2.375l1.12499,-4.75c-47.84926,-23.67535 -134.35656,-39.21875 -233.37248,-39.21875zm0,5c91.16946,0 171.7473,13.47861 220.09137,33.71875c-29.95203,-0.58241 -65.21189,-1.60604 -109.31132,-2.125c-53.9371,-0.63473 -98.97585,3.65217 -133.40481,2.03125c-17.21447,-0.81046 -31.76683,-3.10539 -43.40578,-8.0625c-10.4532,-4.45209 -18.4853,-11.15435 -24.49974,-20.90625c28.30745,-2.98306 58.73468,-4.65625 90.53028,-4.65625z" id="path4025" stroke-width="5" fill-rule="nonzero" fill="#191919" opacity="0.9"/>
                <path d="m-35.773044,362.68761l-77.74917,12.46875c-27.1504,4.35415 -48.94714,48.77276 -50.99945,104.84375c2.05231,56.07099 23.84905,100.4896 50.99945,104.84375l77.74917,12.46875c13.29585,0 23.99974,-10.704 23.99974,-24l0,-186.625c0,-13.296 -10.70389,-24 -23.99974,-24z" id="rect2864" stroke-miterlimit="4" stroke-width="5" stroke="#191919" fill-opacity="0.996078" fill="#262626" opacity="0.9"/>
                <path d="m395.691046,328.46886c-2.96919,0 -5.89327,0.33215 -8.78116,0.96875c-0.0104,-0.01 -0.0208,-0.021 -0.0312,-0.0312l-63.84311,12.3125c-17.7278,6.60469 -31.99965,14.272 -31.99965,32l0,212.5625c0,17.728 14.27185,25.39531 31.99965,32l63.84306,12.3125c0.0105,-0.0102 0.0208,-0.0211 0.0312,-0.0312c2.88789,0.6366 5.81197,0.96875 8.78116,0.96875c45.39547,0 82.19753,-57.36263 82.31161,-151.53125c-0.11408,-94.16862 -36.91614,-151.53125 -82.31161,-151.53125l0.00005,-0.0001z" id="path3703" stroke-dashoffset="0" stroke-miterlimit="4" stroke-width="5" stroke="#191919" fill-opacity="0.996078" fill="#262626" opacity="0.9"/>
                <path d="m104.069586,349.45676c-33.36407,0 -65.30693,-1.8 -94.81148,-5.0625c25.66022,-48.71366 97.98502,-30.26531 205.56028,-31.53125c49.68636,-0.58471 89.54313,-1.87929 121.52994,-2.375c-47.1597,23.33417 -133.52669,38.96875 -232.27874,38.96875z" id="path4157" fill-opacity="0.996078" fill="#262626" opacity="0.9"/>
                <path d="m104.069586,349.45676c-3.20645,0 -6.3831,-0.0295 -9.5624,-0.0625c0.81825,-16.17101 6.42806,-30.25652 14.59359,-38.84375c4.67141,0.0756 9.49509,0.19655 14.43735,0.34375c-8.56569,8.1923 -14.59264,22.22803 -15.71858,38.5625c-1.25125,0.005 -2.49466,0 -3.74996,0z" id="path4159" fill-opacity="0.996078" fill="#000000" opacity="0.5"/>
                <path d="m692.750736,377.19321l-5.0937,-0.59375c-21.54475,-2.51272 -37.68825,-25.97858 -39.28083,-54.53125l-0.37499,-7.125l5.24994,4.84375c15.88918,14.68042 28.30315,32.50737 37.40585,52.75l2.09373,4.65625z" id="path4161" stroke-miterlimit="4" stroke-width="5" stroke="#191919" fill-rule="nonzero" fill="#212121"/>
                <path d="m487.204076,366.19509c0,0 79.67723,22.59643 105.37631,31.98181c26.83936,9.80183 98.85885,39.14563 98.85885,39.14563c0,0 -8.74094,-42.46969 -30.48286,-57.91806c-77.22325,-54.86973 -232.68583,-53.85363 -232.68583,-53.85363" id="path4163" stroke-miterlimit="4" stroke-linejoin="round" stroke-linecap="round" stroke-width="6" stroke="#292929" fill="none" opacity="0.5"/>
                <path d="m573.699006,386.8553l-4.43745,-2.34375c0.98912,-1.15678 1.79551,-2.42864 2.37497,-3.84375c4.79791,-11.71705 -10.73585,-29.23596 -26.87471,-35.78125c-0.51675,-0.20958 -1.81289,-0.84066 -3.40621,-1.65625l13.62485,3.875c17.30577,8.45764 27.47047,23.08195 22.99975,34c-0.91615,2.23734 -2.3752,4.16608 -4.2812,5.75z" id="path4165" fill="url(#linearGradient4185)"/>
                <path d="m582.283176,391.31639l-4.43746,-2.34375c0.98913,-1.15678 1.79551,-2.42864 2.37498,-3.84375c4.79791,-11.71705 -10.73586,-29.23596 -26.87471,-35.78125c-0.51676,-0.20958 -1.81289,-0.84066 -3.40622,-1.65625l13.62486,3.875c17.30577,8.45764 27.47047,23.08195 22.99975,34c-0.91615,2.23734 -2.37521,4.16608 -4.2812,5.75z" id="path4167" fill="url(#linearGradient4187)"/>
                <path d="m588.470286,392.7306l-4.43745,-2.34375c0.98913,-1.15678 1.79551,-2.42864 2.37497,-3.84375c4.79791,-11.71705 -10.73585,-29.23596 -26.87471,-35.78125c-0.51675,-0.20958 -1.81289,-0.84066 -3.40621,-1.65625l13.62485,3.875c17.30577,8.45764 27.47047,23.08195 22.99975,34c-0.91615,2.23734 -2.3752,4.16608 -4.2812,5.75z" id="path4169" fill="url(#linearGradient4189)"/>
                <path d="m605.376676,397.00389l-6.18744,-1.84375c0.96015,-1.71281 1.65449,-3.53229 2.03123,-5.46875c3.11938,-16.03389 -20.96196,-34.28356 -43.03078,-38.5c-3.39497,-0.64864 -28.88402,-8.57601 -32.15792,-8.80445l0,-4.125l41.43906,12.1482c26.2854,5.49629 44.94881,22.44802 41.87455,38.25c-0.59564,3.06164 -1.95605,5.85954 -3.9687,8.34375z" id="path4171" fill="url(#linearGradient4191)"/>
                <path d="m605.376676,397.00389l-6.18744,-1.84375c0.96015,-1.71281 1.65449,-3.53229 2.03123,-5.46875c3.11938,-16.03389 -20.96196,-34.28356 -43.03078,-38.5c-3.39497,-0.64864 -28.88402,-8.57601 -32.15792,-8.80445l0,-4.125l41.43906,12.1482c26.2854,5.49629 44.94881,22.44802 41.87455,38.25c-0.59564,3.06164 -1.95605,5.85954 -3.9687,8.34375z" id="path4173" fill="url(#linearGradient4193)"/>
                <path d="m560.852416,382.23586l-3.96408,-2.09372c0.88361,-1.03338 1.60397,-2.16956 2.12162,-3.43371c4.28608,-10.4671 -9.59058,-26.11713 -24.00777,-31.96418c-0.46163,-0.18723 -1.6195,-0.75098 -3.04285,-1.47957l12.17138,3.46162c15.45963,7.5554 24.53998,20.61962 20.54619,30.37296c-0.81842,1.99866 -2.12182,3.72165 -3.82449,5.1366z" id="path4175" fill="url(#linearGradient4195)"/>
                <path d="m547.045096,378.66257l-3.96407,-2.09372c0.88361,-1.03338 1.60396,-2.16956 2.12162,-3.43371c4.28607,-10.4671 -9.59058,-26.11713 -24.00779,-31.96418c-0.46162,-0.18723 -1.61949,-0.75098 -3.04283,-1.47957l12.17138,3.46163c15.45963,7.55539 24.53998,20.61961 20.54618,30.37295c-0.81842,1.99866 -2.12182,3.72165 -3.82449,5.1366z" id="path4177" fill="url(#linearGradient4197)"/>
                <path d="m-63.004734,358.96969c8.29302,2.02335 15.48553,1.4788 19.79746,-5.78717l-2.49335,-17.89675c-6.87512,-6.17325 -13.75024,-4.95089 -20.62536,-0.15543l3.32125,23.83935z" id="path4179" fill="url(#linearGradient4199)"/>
                <path d="m-42.728534,355.70642c8.15021,1.21022 15.16667,0.5728 18.84282,-5.50812l-2.37311,-17.03377c-6.4839,-2.97479 -12.98291,-5.20965 -19.63082,-0.14793l3.16111,22.68982z" id="path4181" fill="url(#linearGradient4201)"/>
                <path d="m104.069586,351.94321c-33.45399,0 -65.4921,-1.78938 -95.09273,-5.0625l-3.65621,-0.40625l1.71873,-3.25c6.67107,-12.66443 16.56158,-21.1134 29.06219,-26.4375c12.5006,-5.3241 27.5721,-7.6126 45.09326,-8.4375c35.04231,-1.6498 79.95415,2.63121 133.59231,2c49.65868,-0.58438 89.50788,-1.87874 121.52994,-2.375l1.12499,4.75c-47.84926,23.67535 -134.35656,39.21875 -233.37248,39.21875zm0,-5c91.16946,0 171.7473,-13.47861 220.09137,-33.71875c-29.95203,0.58241 -65.21189,1.60604 -109.31132,2.125c-53.9371,0.63473 -98.97585,-3.65217 -133.40481,-2.03125c-17.21447,0.81046 -31.76683,3.10539 -43.40578,8.0625c-10.4532,4.45209 -18.4853,11.15435 -24.49974,20.90625c28.30745,2.98306 58.73468,4.65625 90.53028,4.65625z" id="path4183" stroke-width="5" fill-rule="nonzero" fill="#191919" opacity="0.9"/>
            </g>
        </g>
    </g>
</svg>